<?xml version="1.0" standalone="no"?>
<!DOCTYPE svg PUBLIC "-//W3C//DTD SVG 20010904//EN"
 "http://www.w3.org/TR/2001/REC-SVG-20010904/DTD/svg10.dtd">
<svg version="1.0" xmlns="http://www.w3.org/2000/svg"
 width="344.000000pt" height="344.000000pt" viewBox="0 0 344.000000 344.000000"
 preserveAspectRatio="xMidYMid meet">
<metadata>
Created by potrace 1.11, written by Peter Selinger 2001-2013
</metadata>
<g transform="translate(0.000000,344.000000) scale(0.100000,-0.100000)"
fill="#000000" stroke="none">
<path d="M1335 3191 c-342 -40 -633 -178 -866 -410 -202 -202 -346 -482 -393
-760 -23 -137 -21 -363 4 -494 54 -277 181 -526 373 -724 461 -477 1211 -570
1763 -218 l50 32 292 -288 292 -289 270 0 270 0 0 71 c0 53 -6 83 -21 114 -14
27 -148 169 -379 400 l-359 358 29 42 c37 54 105 188 135 269 106 282 112 635
15 926 -102 307 -299 569 -554 737 -91 60 -268 144 -371 176 -158 49 -401 75
-550 58z m395 -546 c113 -36 181 -72 278 -144 291 -220 418 -578 332 -937 -38
-161 -117 -295 -249 -424 -228 -222 -523 -303 -838 -230 -152 36 -274 104
-399 222 -149 142 -236 299 -269 487 -36 204 -3 418 91 590 133 243 377 418
639 462 28 4 113 6 190 4 118 -3 153 -7 225 -30z"/>
<path d="M1366 2406 l-26 -25 0 -236 0 -235 -238 0 c-288 0 -272 8 -272 -128
0 -69 4 -94 16 -106 13 -14 51 -16 255 -16 l239 0 0 -240 c0 -293 -6 -280 125
-280 78 0 88 2 110 25 l25 24 0 236 0 235 239 0 c286 0 271 -7 271 127 0 128
11 123 -275 123 l-235 0 0 234 c0 289 4 279 -124 285 -80 3 -86 2 -110 -23z"/>
<path d="M13 3 c9 -2 23 -2 30 0 6 3 -1 5 -18 5 -17 0 -22 -2 -12 -5z"/>
</g>
</svg>
